<?xml version="1.0" encoding="UTF-8"?>
<svg id="Layer_1" xmlns="http://www.w3.org/2000/svg" version="1.1" viewBox="0 0 1000 1000">
  <!-- Generator: Adobe Illustrator 29.2.1, SVG Export Plug-In . SVG Version: 2.1.0 Build 116)  -->
  <defs>
    <style>
      .st0 {
        fill: #fff;
        stroke: #231f20;
        stroke-miterlimit: 10;
      }
    </style>
  </defs>
  <rect class="st0" width="40" height="40"/>
  <rect class="st0" x="40" width="40" height="40"/>
  <rect class="st0" x="80" width="40" height="40"/>
  <rect class="st0" x="120" width="40" height="40"/>
  <rect class="st0" x="160" width="40" height="40"/>
  <rect class="st0" x="200" width="40" height="40"/>
  <rect class="st0" x="240" width="40" height="40"/>
  <rect class="st0" x="280" width="40" height="40"/>
  <rect class="st0" x="320" width="40" height="40"/>
  <rect class="st0" x="360" width="40" height="40"/>
  <rect class="st0" x="400" width="40" height="40"/>
  <rect class="st0" x="440" width="40" height="40"/>
  <rect class="st0" x="480" width="40" height="40"/>
  <rect class="st0" x="520" width="40" height="40"/>
  <rect class="st0" x="560" width="40" height="40"/>
  <rect class="st0" x="600" width="40" height="40"/>
  <rect class="st0" x="640" width="40" height="40"/>
  <rect class="st0" x="680" width="40" height="40"/>
  <rect class="st0" x="720" width="40" height="40"/>
  <rect class="st0" x="760" width="40" height="40"/>
  <rect class="st0" x="800" width="40" height="40"/>
  <rect class="st0" x="840" width="40" height="40"/>
  <rect class="st0" x="880" width="40" height="40"/>
  <rect class="st0" x="920" width="40" height="40"/>
  <rect class="st0" x="960" width="40" height="40"/>
  <rect class="st0" y="40" width="40" height="40"/>
  <rect class="st0" x="40" y="40" width="40" height="40"/>
  <rect class="st0" x="80" y="40" width="40" height="40"/>
  <rect class="st0" x="120" y="40" width="40" height="40"/>
  <rect class="st0" x="160" y="40" width="40" height="40"/>
  <rect class="st0" x="200" y="40" width="40" height="40"/>
  <rect class="st0" x="240" y="40" width="40" height="40"/>
  <rect class="st0" x="280" y="40" width="40" height="40"/>
  <rect class="st0" x="320" y="40" width="40" height="40"/>
  <rect class="st0" x="360" y="40" width="40" height="40"/>
  <rect class="st0" x="400" y="40" width="40" height="40"/>
  <rect class="st0" x="440" y="40" width="40" height="40"/>
  <rect class="st0" x="480" y="40" width="40" height="40"/>
  <rect class="st0" x="520" y="40" width="40" height="40"/>
  <rect class="st0" x="560" y="40" width="40" height="40"/>
  <rect class="st0" x="600" y="40" width="40" height="40"/>
  <rect class="st0" x="640" y="40" width="40" height="40"/>
  <rect class="st0" x="680" y="40" width="40" height="40"/>
  <rect class="st0" x="720" y="40" width="40" height="40"/>
  <rect class="st0" x="760" y="40" width="40" height="40"/>
  <rect class="st0" x="800" y="40" width="40" height="40"/>
  <rect class="st0" x="840" y="40" width="40" height="40"/>
  <rect class="st0" x="880" y="40" width="40" height="40"/>
  <rect class="st0" x="920" y="40" width="40" height="40"/>
  <rect class="st0" x="960" y="40" width="40" height="40"/>
  <rect class="st0" y="80" width="40" height="40"/>
  <rect class="st0" x="40" y="80" width="40" height="40"/>
  <rect class="st0" x="80" y="80" width="40" height="40"/>
  <rect class="st0" x="120" y="80" width="40" height="40"/>
  <rect class="st0" x="160" y="80" width="40" height="40"/>
  <rect class="st0" x="200" y="80" width="40" height="40"/>
  <rect class="st0" x="240" y="80" width="40" height="40"/>
  <rect class="st0" x="280" y="80" width="40" height="40"/>
  <rect class="st0" x="320" y="80" width="40" height="40"/>
  <rect class="st0" x="360" y="80" width="40" height="40"/>
  <rect class="st0" x="400" y="80" width="40" height="40"/>
  <rect class="st0" x="440" y="80" width="40" height="40"/>
  <rect class="st0" x="480" y="80" width="40" height="40"/>
  <rect class="st0" x="520" y="80" width="40" height="40"/>
  <rect class="st0" x="560" y="80" width="40" height="40"/>
  <rect class="st0" x="600" y="80" width="40" height="40"/>
  <rect class="st0" x="640" y="80" width="40" height="40"/>
  <rect class="st0" x="680" y="80" width="40" height="40"/>
  <rect class="st0" x="720" y="80" width="40" height="40"/>
  <rect class="st0" x="760" y="80" width="40" height="40"/>
  <rect class="st0" x="800" y="80" width="40" height="40"/>
  <rect class="st0" x="840" y="80" width="40" height="40"/>
  <rect class="st0" x="880" y="80" width="40" height="40"/>
  <rect class="st0" x="920" y="80" width="40" height="40"/>
  <rect class="st0" x="960" y="80" width="40" height="40"/>
  <rect class="st0" y="120" width="40" height="40"/>
  <rect class="st0" x="40" y="120" width="40" height="40"/>
  <rect class="st0" x="80" y="120" width="40" height="40"/>
  <rect class="st0" x="120" y="120" width="40" height="40"/>
  <rect class="st0" x="160" y="120" width="40" height="40"/>
  <rect class="st0" x="200" y="120" width="40" height="40"/>
  <rect class="st0" x="240" y="120" width="40" height="40"/>
  <rect class="st0" x="280" y="120" width="40" height="40"/>
  <rect class="st0" x="320" y="120" width="40" height="40"/>
  <rect class="st0" x="360" y="120" width="40" height="40"/>
  <rect class="st0" x="400" y="120" width="40" height="40"/>
  <rect class="st0" x="440" y="120" width="40" height="40"/>
  <rect class="st0" x="480" y="120" width="40" height="40"/>
  <rect class="st0" x="520" y="120" width="40" height="40"/>
  <rect class="st0" x="560" y="120" width="40" height="40"/>
  <rect class="st0" x="600" y="120" width="40" height="40"/>
  <rect class="st0" x="640" y="120" width="40" height="40"/>
  <rect class="st0" x="680" y="120" width="40" height="40"/>
  <rect class="st0" x="720" y="120" width="40" height="40"/>
  <rect class="st0" x="760" y="120" width="40" height="40"/>
  <rect class="st0" x="800" y="120" width="40" height="40"/>
  <rect class="st0" x="840" y="120" width="40" height="40"/>
  <rect class="st0" x="880" y="120" width="40" height="40"/>
  <rect class="st0" x="920" y="120" width="40" height="40"/>
  <rect class="st0" x="960" y="120" width="40" height="40"/>
  <rect class="st0" y="160" width="40" height="40"/>
  <rect class="st0" x="40" y="160" width="40" height="40"/>
  <rect class="st0" x="80" y="160" width="40" height="40"/>
  <rect class="st0" x="120" y="160" width="40" height="40"/>
  <rect class="st0" x="160" y="160" width="40" height="40"/>
  <rect class="st0" x="200" y="160" width="40" height="40"/>
  <rect class="st0" x="240" y="160" width="40" height="40"/>
  <rect class="st0" x="280" y="160" width="40" height="40"/>
  <rect class="st0" x="320" y="160" width="40" height="40"/>
  <rect class="st0" x="360" y="160" width="40" height="40"/>
  <rect class="st0" x="400" y="160" width="40" height="40"/>
  <rect class="st0" x="440" y="160" width="40" height="40"/>
  <rect class="st0" x="480" y="160" width="40" height="40"/>
  <rect class="st0" x="520" y="160" width="40" height="40"/>
  <rect class="st0" x="560" y="160" width="40" height="40"/>
  <rect class="st0" x="600" y="160" width="40" height="40"/>
  <rect class="st0" x="640" y="160" width="40" height="40"/>
  <rect class="st0" x="680" y="160" width="40" height="40"/>
  <rect class="st0" x="720" y="160" width="40" height="40"/>
  <rect class="st0" x="760" y="160" width="40" height="40"/>
  <rect class="st0" x="800" y="160" width="40" height="40"/>
  <rect class="st0" x="840" y="160" width="40" height="40"/>
  <rect class="st0" x="880" y="160" width="40" height="40"/>
  <rect class="st0" x="920" y="160" width="40" height="40"/>
  <rect class="st0" x="960" y="160" width="40" height="40"/>
  <rect class="st0" y="200" width="40" height="40"/>
  <rect class="st0" x="40" y="200" width="40" height="40"/>
  <rect class="st0" x="80" y="200" width="40" height="40"/>
  <rect class="st0" x="120" y="200" width="40" height="40"/>
  <rect class="st0" x="160" y="200" width="40" height="40"/>
  <rect class="st0" x="200" y="200" width="40" height="40"/>
  <rect class="st0" x="240" y="200" width="40" height="40"/>
  <rect class="st0" x="280" y="200" width="40" height="40"/>
  <rect class="st0" x="320" y="200" width="40" height="40"/>
  <rect class="st0" x="360" y="200" width="40" height="40"/>
  <rect class="st0" x="400" y="200" width="40" height="40"/>
  <rect class="st0" x="440" y="200" width="40" height="40"/>
  <rect class="st0" x="480" y="200" width="40" height="40"/>
  <rect class="st0" x="520" y="200" width="40" height="40"/>
  <rect class="st0" x="560" y="200" width="40" height="40"/>
  <rect class="st0" x="600" y="200" width="40" height="40"/>
  <rect class="st0" x="640" y="200" width="40" height="40"/>
  <rect class="st0" x="680" y="200" width="40" height="40"/>
  <rect class="st0" x="720" y="200" width="40" height="40"/>
  <rect class="st0" x="760" y="200" width="40" height="40"/>
  <rect class="st0" x="800" y="200" width="40" height="40"/>
  <rect class="st0" x="840" y="200" width="40" height="40"/>
  <rect class="st0" x="880" y="200" width="40" height="40"/>
  <rect class="st0" x="920" y="200" width="40" height="40"/>
  <rect class="st0" x="960" y="200" width="40" height="40"/>
  <rect class="st0" y="240" width="40" height="40"/>
  <rect class="st0" x="40" y="240" width="40" height="40"/>
  <rect class="st0" x="80" y="240" width="40" height="40"/>
  <rect class="st0" x="120" y="240" width="40" height="40"/>
  <rect class="st0" x="160" y="240" width="40" height="40"/>
  <rect class="st0" x="200" y="240" width="40" height="40"/>
  <rect class="st0" x="240" y="240" width="40" height="40"/>
  <rect class="st0" x="280" y="240" width="40" height="40"/>
  <rect class="st0" x="320" y="240" width="40" height="40"/>
  <rect class="st0" x="360" y="240" width="40" height="40"/>
  <rect class="st0" x="400" y="240" width="40" height="40"/>
  <rect class="st0" x="440" y="240" width="40" height="40"/>
  <rect class="st0" x="480" y="240" width="40" height="40"/>
  <rect class="st0" x="520" y="240" width="40" height="40"/>
  <rect class="st0" x="560" y="240" width="40" height="40"/>
  <rect class="st0" x="600" y="240" width="40" height="40"/>
  <rect class="st0" x="640" y="240" width="40" height="40"/>
  <rect class="st0" x="680" y="240" width="40" height="40"/>
  <rect class="st0" x="720" y="240" width="40" height="40"/>
  <rect class="st0" x="760" y="240" width="40" height="40"/>
  <rect class="st0" x="800" y="240" width="40" height="40"/>
  <rect class="st0" x="840" y="240" width="40" height="40"/>
  <rect class="st0" x="880" y="240" width="40" height="40"/>
  <rect class="st0" x="920" y="240" width="40" height="40"/>
  <rect class="st0" x="960" y="240" width="40" height="40"/>
  <rect class="st0" y="280" width="40" height="40"/>
  <rect class="st0" x="40" y="280" width="40" height="40"/>
  <rect class="st0" x="80" y="280" width="40" height="40"/>
  <rect class="st0" x="120" y="280" width="40" height="40"/>
  <rect class="st0" x="160" y="280" width="40" height="40"/>
  <rect class="st0" x="200" y="280" width="40" height="40"/>
  <rect class="st0" x="240" y="280" width="40" height="40"/>
  <rect class="st0" x="280" y="280" width="40" height="40"/>
  <rect class="st0" x="320" y="280" width="40" height="40"/>
  <rect class="st0" x="360" y="280" width="40" height="40"/>
  <rect class="st0" x="400" y="280" width="40" height="40"/>
  <rect class="st0" x="440" y="280" width="40" height="40"/>
  <rect class="st0" x="480" y="280" width="40" height="40"/>
  <rect class="st0" x="520" y="280" width="40" height="40"/>
  <rect class="st0" x="560" y="280" width="40" height="40"/>
  <rect class="st0" x="600" y="280" width="40" height="40"/>
  <rect class="st0" x="640" y="280" width="40" height="40"/>
  <rect class="st0" x="680" y="280" width="40" height="40"/>
  <rect class="st0" x="720" y="280" width="40" height="40"/>
  <rect class="st0" x="760" y="280" width="40" height="40"/>
  <rect class="st0" x="800" y="280" width="40" height="40"/>
  <rect class="st0" x="840" y="280" width="40" height="40"/>
  <rect class="st0" x="880" y="280" width="40" height="40"/>
  <rect class="st0" x="920" y="280" width="40" height="40"/>
  <rect class="st0" x="960" y="280" width="40" height="40"/>
  <rect class="st0" y="320" width="40" height="40"/>
  <rect class="st0" x="40" y="320" width="40" height="40"/>
  <rect class="st0" x="80" y="320" width="40" height="40"/>
  <rect class="st0" x="120" y="320" width="40" height="40"/>
  <rect class="st0" x="160" y="320" width="40" height="40"/>
  <rect class="st0" x="200" y="320" width="40" height="40"/>
  <rect class="st0" x="240" y="320" width="40" height="40"/>
  <rect class="st0" x="280" y="320" width="40" height="40"/>
  <rect class="st0" x="320" y="320" width="40" height="40"/>
  <rect class="st0" x="360" y="320" width="40" height="40"/>
  <rect class="st0" x="400" y="320" width="40" height="40"/>
  <rect class="st0" x="440" y="320" width="40" height="40"/>
  <rect class="st0" x="480" y="320" width="40" height="40"/>
  <rect class="st0" x="520" y="320" width="40" height="40"/>
  <rect class="st0" x="560" y="320" width="40" height="40"/>
  <rect class="st0" x="600" y="320" width="40" height="40"/>
  <rect class="st0" x="640" y="320" width="40" height="40"/>
  <rect class="st0" x="680" y="320" width="40" height="40"/>
  <rect class="st0" x="720" y="320" width="40" height="40"/>
  <rect class="st0" x="760" y="320" width="40" height="40"/>
  <rect class="st0" x="800" y="320" width="40" height="40"/>
  <rect class="st0" x="840" y="320" width="40" height="40"/>
  <rect class="st0" x="880" y="320" width="40" height="40"/>
  <rect class="st0" x="920" y="320" width="40" height="40"/>
  <rect class="st0" x="960" y="320" width="40" height="40"/>
  <rect class="st0" y="360" width="40" height="40"/>
  <rect class="st0" x="40" y="360" width="40" height="40"/>
  <rect class="st0" x="80" y="360" width="40" height="40"/>
  <rect class="st0" x="120" y="360" width="40" height="40"/>
  <rect class="st0" x="160" y="360" width="40" height="40"/>
  <rect class="st0" x="200" y="360" width="40" height="40"/>
  <rect class="st0" x="240" y="360" width="40" height="40"/>
  <rect class="st0" x="280" y="360" width="40" height="40"/>
  <rect class="st0" x="320" y="360" width="40" height="40"/>
  <rect class="st0" x="360" y="360" width="40" height="40"/>
  <rect class="st0" x="400" y="360" width="40" height="40"/>
  <rect class="st0" x="440" y="360" width="40" height="40"/>
  <rect class="st0" x="480" y="360" width="40" height="40"/>
  <rect class="st0" x="520" y="360" width="40" height="40"/>
  <rect class="st0" x="560" y="360" width="40" height="40"/>
  <rect class="st0" x="600" y="360" width="40" height="40"/>
  <rect class="st0" x="640" y="360" width="40" height="40"/>
  <rect class="st0" x="680" y="360" width="40" height="40"/>
  <rect class="st0" x="720" y="360" width="40" height="40"/>
  <rect class="st0" x="760" y="360" width="40" height="40"/>
  <rect class="st0" x="800" y="360" width="40" height="40"/>
  <rect class="st0" x="840" y="360" width="40" height="40"/>
  <rect class="st0" x="880" y="360" width="40" height="40"/>
  <rect class="st0" x="920" y="360" width="40" height="40"/>
  <rect class="st0" x="960" y="360" width="40" height="40"/>
  <rect class="st0" y="400" width="40" height="40"/>
  <rect class="st0" x="40" y="400" width="40" height="40"/>
  <rect class="st0" x="80" y="400" width="40" height="40"/>
  <rect class="st0" x="120" y="400" width="40" height="40"/>
  <rect class="st0" x="160" y="400" width="40" height="40"/>
  <rect class="st0" x="200" y="400" width="40" height="40"/>
  <rect class="st0" x="240" y="400" width="40" height="40"/>
  <rect class="st0" x="280" y="400" width="40" height="40"/>
  <rect class="st0" x="320" y="400" width="40" height="40"/>
  <rect class="st0" x="360" y="400" width="40" height="40"/>
  <rect class="st0" x="400" y="400" width="40" height="40"/>
  <rect class="st0" x="440" y="400" width="40" height="40"/>
  <rect class="st0" x="480" y="400" width="40" height="40"/>
  <rect class="st0" x="520" y="400" width="40" height="40"/>
  <rect class="st0" x="560" y="400" width="40" height="40"/>
  <rect class="st0" x="600" y="400" width="40" height="40"/>
  <rect class="st0" x="640" y="400" width="40" height="40"/>
  <rect class="st0" x="680" y="400" width="40" height="40"/>
  <rect class="st0" x="720" y="400" width="40" height="40"/>
  <rect class="st0" x="760" y="400" width="40" height="40"/>
  <rect class="st0" x="800" y="400" width="40" height="40"/>
  <rect class="st0" x="840" y="400" width="40" height="40"/>
  <rect class="st0" x="880" y="400" width="40" height="40"/>
  <rect class="st0" x="920" y="400" width="40" height="40"/>
  <rect class="st0" x="960" y="400" width="40" height="40"/>
  <rect class="st0" y="440" width="40" height="40"/>
  <rect class="st0" x="40" y="440" width="40" height="40"/>
  <rect class="st0" x="80" y="440" width="40" height="40"/>
  <rect class="st0" x="120" y="440" width="40" height="40"/>
  <rect class="st0" x="160" y="440" width="40" height="40"/>
  <rect class="st0" x="200" y="440" width="40" height="40"/>
  <rect class="st0" x="240" y="440" width="40" height="40"/>
  <rect class="st0" x="280" y="440" width="40" height="40"/>
  <rect class="st0" x="320" y="440" width="40" height="40"/>
  <rect class="st0" x="360" y="440" width="40" height="40"/>
  <rect class="st0" x="400" y="440" width="40" height="40"/>
  <rect class="st0" x="440" y="440" width="40" height="40"/>
  <rect class="st0" x="480" y="440" width="40" height="40"/>
  <rect class="st0" x="520" y="440" width="40" height="40"/>
  <rect class="st0" x="560" y="440" width="40" height="40"/>
  <rect class="st0" x="600" y="440" width="40" height="40"/>
  <rect class="st0" x="640" y="440" width="40" height="40"/>
  <rect class="st0" x="680" y="440" width="40" height="40"/>
  <rect class="st0" x="720" y="440" width="40" height="40"/>
  <rect class="st0" x="760" y="440" width="40" height="40"/>
  <rect class="st0" x="800" y="440" width="40" height="40"/>
  <rect class="st0" x="840" y="440" width="40" height="40"/>
  <rect class="st0" x="880" y="440" width="40" height="40"/>
  <rect class="st0" x="920" y="440" width="40" height="40"/>
  <rect class="st0" x="960" y="440" width="40" height="40"/>
  <rect class="st0" y="480" width="40" height="40"/>
  <rect class="st0" x="40" y="480" width="40" height="40"/>
  <rect class="st0" x="80" y="480" width="40" height="40"/>
  <rect class="st0" x="120" y="480" width="40" height="40"/>
  <rect class="st0" x="160" y="480" width="40" height="40"/>
  <rect class="st0" x="200" y="480" width="40" height="40"/>
  <rect class="st0" x="240" y="480" width="40" height="40"/>
  <rect class="st0" x="280" y="480" width="40" height="40"/>
  <rect class="st0" x="320" y="480" width="40" height="40"/>
  <rect class="st0" x="360" y="480" width="40" height="40"/>
  <rect class="st0" x="400" y="480" width="40" height="40"/>
  <rect class="st0" x="440" y="480" width="40" height="40"/>
  <rect class="st0" x="480" y="480" width="40" height="40"/>
  <rect class="st0" x="520" y="480" width="40" height="40"/>
  <rect class="st0" x="560" y="480" width="40" height="40"/>
  <rect class="st0" x="600" y="480" width="40" height="40"/>
  <rect class="st0" x="640" y="480" width="40" height="40"/>
  <rect class="st0" x="680" y="480" width="40" height="40"/>
  <rect class="st0" x="720" y="480" width="40" height="40"/>
  <rect class="st0" x="760" y="480" width="40" height="40"/>
  <rect class="st0" x="800" y="480" width="40" height="40"/>
  <rect class="st0" x="840" y="480" width="40" height="40"/>
  <rect class="st0" x="880" y="480" width="40" height="40"/>
  <rect class="st0" x="920" y="480" width="40" height="40"/>
  <rect class="st0" x="960" y="480" width="40" height="40"/>
  <rect class="st0" y="520" width="40" height="40"/>
  <rect class="st0" x="40" y="520" width="40" height="40"/>
  <rect class="st0" x="80" y="520" width="40" height="40"/>
  <rect class="st0" x="120" y="520" width="40" height="40"/>
  <rect class="st0" x="160" y="520" width="40" height="40"/>
  <rect class="st0" x="200" y="520" width="40" height="40"/>
  <rect class="st0" x="240" y="520" width="40" height="40"/>
  <rect class="st0" x="280" y="520" width="40" height="40"/>
  <rect class="st0" x="320" y="520" width="40" height="40"/>
  <rect class="st0" x="360" y="520" width="40" height="40"/>
  <rect class="st0" x="400" y="520" width="40" height="40"/>
  <rect class="st0" x="440" y="520" width="40" height="40"/>
  <rect class="st0" x="480" y="520" width="40" height="40"/>
  <rect class="st0" x="520" y="520" width="40" height="40"/>
  <rect class="st0" x="560" y="520" width="40" height="40"/>
  <rect class="st0" x="600" y="520" width="40" height="40"/>
  <rect class="st0" x="640" y="520" width="40" height="40"/>
  <rect class="st0" x="680" y="520" width="40" height="40"/>
  <rect class="st0" x="720" y="520" width="40" height="40"/>
  <rect class="st0" x="760" y="520" width="40" height="40"/>
  <rect class="st0" x="800" y="520" width="40" height="40"/>
  <rect class="st0" x="840" y="520" width="40" height="40"/>
  <rect class="st0" x="880" y="520" width="40" height="40"/>
  <rect class="st0" x="920" y="520" width="40" height="40"/>
  <rect class="st0" x="960" y="520" width="40" height="40"/>
  <rect class="st0" y="560" width="40" height="40"/>
  <rect class="st0" x="40" y="560" width="40" height="40"/>
  <rect class="st0" x="80" y="560" width="40" height="40"/>
  <rect class="st0" x="120" y="560" width="40" height="40"/>
  <rect class="st0" x="160" y="560" width="40" height="40"/>
  <rect class="st0" x="200" y="560" width="40" height="40"/>
  <rect class="st0" x="240" y="560" width="40" height="40"/>
  <rect class="st0" x="280" y="560" width="40" height="40"/>
  <rect class="st0" x="320" y="560" width="40" height="40"/>
  <rect class="st0" x="360" y="560" width="40" height="40"/>
  <rect class="st0" x="400" y="560" width="40" height="40"/>
  <rect class="st0" x="440" y="560" width="40" height="40"/>
  <rect class="st0" x="480" y="560" width="40" height="40"/>
  <rect class="st0" x="520" y="560" width="40" height="40"/>
  <rect class="st0" x="560" y="560" width="40" height="40"/>
  <rect class="st0" x="600" y="560" width="40" height="40"/>
  <rect class="st0" x="640" y="560" width="40" height="40"/>
  <rect class="st0" x="680" y="560" width="40" height="40"/>
  <rect class="st0" x="720" y="560" width="40" height="40"/>
  <rect class="st0" x="760" y="560" width="40" height="40"/>
  <rect class="st0" x="800" y="560" width="40" height="40"/>
  <rect class="st0" x="840" y="560" width="40" height="40"/>
  <rect class="st0" x="880" y="560" width="40" height="40"/>
  <rect class="st0" x="920" y="560" width="40" height="40"/>
  <rect class="st0" x="960" y="560" width="40" height="40"/>
  <rect class="st0" y="600" width="40" height="40"/>
  <rect class="st0" x="40" y="600" width="40" height="40"/>
  <rect class="st0" x="80" y="600" width="40" height="40"/>
  <rect class="st0" x="120" y="600" width="40" height="40"/>
  <rect class="st0" x="160" y="600" width="40" height="40"/>
  <rect class="st0" x="200" y="600" width="40" height="40"/>
  <rect class="st0" x="240" y="600" width="40" height="40"/>
  <rect class="st0" x="280" y="600" width="40" height="40"/>
  <rect class="st0" x="320" y="600" width="40" height="40"/>
  <rect class="st0" x="360" y="600" width="40" height="40"/>
  <rect class="st0" x="400" y="600" width="40" height="40"/>
  <rect class="st0" x="440" y="600" width="40" height="40"/>
  <rect class="st0" x="480" y="600" width="40" height="40"/>
  <rect class="st0" x="520" y="600" width="40" height="40"/>
  <rect class="st0" x="560" y="600" width="40" height="40"/>
  <rect class="st0" x="600" y="600" width="40" height="40"/>
  <rect class="st0" x="640" y="600" width="40" height="40"/>
  <rect class="st0" x="680" y="600" width="40" height="40"/>
  <rect class="st0" x="720" y="600" width="40" height="40"/>
  <rect class="st0" x="760" y="600" width="40" height="40"/>
  <rect class="st0" x="800" y="600" width="40" height="40"/>
  <rect class="st0" x="840" y="600" width="40" height="40"/>
  <rect class="st0" x="880" y="600" width="40" height="40"/>
  <rect class="st0" x="920" y="600" width="40" height="40"/>
  <rect class="st0" x="960" y="600" width="40" height="40"/>
  <rect class="st0" y="640" width="40" height="40"/>
  <rect class="st0" x="40" y="640" width="40" height="40"/>
  <rect class="st0" x="80" y="640" width="40" height="40"/>
  <rect class="st0" x="120" y="640" width="40" height="40"/>
  <rect class="st0" x="160" y="640" width="40" height="40"/>
  <rect class="st0" x="200" y="640" width="40" height="40"/>
  <rect class="st0" x="240" y="640" width="40" height="40"/>
  <rect class="st0" x="280" y="640" width="40" height="40"/>
  <rect class="st0" x="320" y="640" width="40" height="40"/>
  <rect class="st0" x="360" y="640" width="40" height="40"/>
  <rect class="st0" x="400" y="640" width="40" height="40"/>
  <rect class="st0" x="440" y="640" width="40" height="40"/>
  <rect class="st0" x="480" y="640" width="40" height="40"/>
  <rect class="st0" x="520" y="640" width="40" height="40"/>
  <rect class="st0" x="560" y="640" width="40" height="40"/>
  <rect class="st0" x="600" y="640" width="40" height="40"/>
  <rect class="st0" x="640" y="640" width="40" height="40"/>
  <rect class="st0" x="680" y="640" width="40" height="40"/>
  <rect class="st0" x="720" y="640" width="40" height="40"/>
  <rect class="st0" x="760" y="640" width="40" height="40"/>
  <rect class="st0" x="800" y="640" width="40" height="40"/>
  <rect class="st0" x="840" y="640" width="40" height="40"/>
  <rect class="st0" x="880" y="640" width="40" height="40"/>
  <rect class="st0" x="920" y="640" width="40" height="40"/>
  <rect class="st0" x="960" y="640" width="40" height="40"/>
  <rect class="st0" y="680" width="40" height="40"/>
  <rect class="st0" x="40" y="680" width="40" height="40"/>
  <rect class="st0" x="80" y="680" width="40" height="40"/>
  <rect class="st0" x="120" y="680" width="40" height="40"/>
  <rect class="st0" x="160" y="680" width="40" height="40"/>
  <rect class="st0" x="200" y="680" width="40" height="40"/>
  <rect class="st0" x="240" y="680" width="40" height="40"/>
  <rect class="st0" x="280" y="680" width="40" height="40"/>
  <rect class="st0" x="320" y="680" width="40" height="40"/>
  <rect class="st0" x="360" y="680" width="40" height="40"/>
  <rect class="st0" x="400" y="680" width="40" height="40"/>
  <rect class="st0" x="440" y="680" width="40" height="40"/>
  <rect class="st0" x="480" y="680" width="40" height="40"/>
  <rect class="st0" x="520" y="680" width="40" height="40"/>
  <rect class="st0" x="560" y="680" width="40" height="40"/>
  <rect class="st0" x="600" y="680" width="40" height="40"/>
  <rect class="st0" x="640" y="680" width="40" height="40"/>
  <rect class="st0" x="680" y="680" width="40" height="40"/>
  <rect class="st0" x="720" y="680" width="40" height="40"/>
  <rect class="st0" x="760" y="680" width="40" height="40"/>
  <rect class="st0" x="800" y="680" width="40" height="40"/>
  <rect class="st0" x="840" y="680" width="40" height="40"/>
  <rect class="st0" x="880" y="680" width="40" height="40"/>
  <rect class="st0" x="920" y="680" width="40" height="40"/>
  <rect class="st0" x="960" y="680" width="40" height="40"/>
  <rect class="st0" y="720" width="40" height="40"/>
  <rect class="st0" x="40" y="720" width="40" height="40"/>
  <rect class="st0" x="80" y="720" width="40" height="40"/>
  <rect class="st0" x="120" y="720" width="40" height="40"/>
  <rect class="st0" x="160" y="720" width="40" height="40"/>
  <rect class="st0" x="200" y="720" width="40" height="40"/>
  <rect class="st0" x="240" y="720" width="40" height="40"/>
  <rect class="st0" x="280" y="720" width="40" height="40"/>
  <rect class="st0" x="320" y="720" width="40" height="40"/>
  <rect class="st0" x="360" y="720" width="40" height="40"/>
  <rect class="st0" x="400" y="720" width="40" height="40"/>
  <rect class="st0" x="440" y="720" width="40" height="40"/>
  <rect class="st0" x="480" y="720" width="40" height="40"/>
  <rect class="st0" x="520" y="720" width="40" height="40"/>
  <rect class="st0" x="560" y="720" width="40" height="40"/>
  <rect class="st0" x="600" y="720" width="40" height="40"/>
  <rect class="st0" x="640" y="720" width="40" height="40"/>
  <rect class="st0" x="680" y="720" width="40" height="40"/>
  <rect class="st0" x="720" y="720" width="40" height="40"/>
  <rect class="st0" x="760" y="720" width="40" height="40"/>
  <rect class="st0" x="800" y="720" width="40" height="40"/>
  <rect class="st0" x="840" y="720" width="40" height="40"/>
  <rect class="st0" x="880" y="720" width="40" height="40"/>
  <rect class="st0" x="920" y="720" width="40" height="40"/>
  <rect class="st0" x="960" y="720" width="40" height="40"/>
  <rect class="st0" y="760" width="40" height="40"/>
  <rect class="st0" x="40" y="760" width="40" height="40"/>
  <rect class="st0" x="80" y="760" width="40" height="40"/>
  <rect class="st0" x="120" y="760" width="40" height="40"/>
  <rect class="st0" x="160" y="760" width="40" height="40"/>
  <rect class="st0" x="200" y="760" width="40" height="40"/>
  <rect class="st0" x="240" y="760" width="40" height="40"/>
  <rect class="st0" x="280" y="760" width="40" height="40"/>
  <rect class="st0" x="320" y="760" width="40" height="40"/>
  <rect class="st0" x="360" y="760" width="40" height="40"/>
  <rect class="st0" x="400" y="760" width="40" height="40"/>
  <rect class="st0" x="440" y="760" width="40" height="40"/>
  <rect class="st0" x="480" y="760" width="40" height="40"/>
  <rect class="st0" x="520" y="760" width="40" height="40"/>
  <rect class="st0" x="560" y="760" width="40" height="40"/>
  <rect class="st0" x="600" y="760" width="40" height="40"/>
  <rect class="st0" x="640" y="760" width="40" height="40"/>
  <rect class="st0" x="680" y="760" width="40" height="40"/>
  <rect class="st0" x="720" y="760" width="40" height="40"/>
  <rect class="st0" x="760" y="760" width="40" height="40"/>
  <rect class="st0" x="800" y="760" width="40" height="40"/>
  <rect class="st0" x="840" y="760" width="40" height="40"/>
  <rect class="st0" x="880" y="760" width="40" height="40"/>
  <rect class="st0" x="920" y="760" width="40" height="40"/>
  <rect class="st0" x="960" y="760" width="40" height="40"/>
  <rect class="st0" y="800" width="40" height="40"/>
  <rect class="st0" x="40" y="800" width="40" height="40"/>
  <rect class="st0" x="80" y="800" width="40" height="40"/>
  <rect class="st0" x="120" y="800" width="40" height="40"/>
  <rect class="st0" x="160" y="800" width="40" height="40"/>
  <rect class="st0" x="200" y="800" width="40" height="40"/>
  <rect class="st0" x="240" y="800" width="40" height="40"/>
  <rect class="st0" x="280" y="800" width="40" height="40"/>
  <rect class="st0" x="320" y="800" width="40" height="40"/>
  <rect class="st0" x="360" y="800" width="40" height="40"/>
  <rect class="st0" x="400" y="800" width="40" height="40"/>
  <rect class="st0" x="440" y="800" width="40" height="40"/>
  <rect class="st0" x="480" y="800" width="40" height="40"/>
  <rect class="st0" x="520" y="800" width="40" height="40"/>
  <rect class="st0" x="560" y="800" width="40" height="40"/>
  <rect class="st0" x="600" y="800" width="40" height="40"/>
  <rect class="st0" x="640" y="800" width="40" height="40"/>
  <rect class="st0" x="680" y="800" width="40" height="40"/>
  <rect class="st0" x="720" y="800" width="40" height="40"/>
  <rect class="st0" x="760" y="800" width="40" height="40"/>
  <rect class="st0" x="800" y="800" width="40" height="40"/>
  <rect class="st0" x="840" y="800" width="40" height="40"/>
  <rect class="st0" x="880" y="800" width="40" height="40"/>
  <rect class="st0" x="920" y="800" width="40" height="40"/>
  <rect class="st0" x="960" y="800" width="40" height="40"/>
  <rect class="st0" y="840" width="40" height="40"/>
  <rect class="st0" x="40" y="840" width="40" height="40"/>
  <rect class="st0" x="80" y="840" width="40" height="40"/>
  <rect class="st0" x="120" y="840" width="40" height="40"/>
  <rect class="st0" x="160" y="840" width="40" height="40"/>
  <rect class="st0" x="200" y="840" width="40" height="40"/>
  <rect class="st0" x="240" y="840" width="40" height="40"/>
  <rect class="st0" x="280" y="840" width="40" height="40"/>
  <rect class="st0" x="320" y="840" width="40" height="40"/>
  <rect class="st0" x="360" y="840" width="40" height="40"/>
  <rect class="st0" x="400" y="840" width="40" height="40"/>
  <rect class="st0" x="440" y="840" width="40" height="40"/>
  <rect class="st0" x="480" y="840" width="40" height="40"/>
  <rect class="st0" x="520" y="840" width="40" height="40"/>
  <rect class="st0" x="560" y="840" width="40" height="40"/>
  <rect class="st0" x="600" y="840" width="40" height="40"/>
  <rect class="st0" x="640" y="840" width="40" height="40"/>
  <rect class="st0" x="680" y="840" width="40" height="40"/>
  <rect class="st0" x="720" y="840" width="40" height="40"/>
  <rect class="st0" x="760" y="840" width="40" height="40"/>
  <rect class="st0" x="800" y="840" width="40" height="40"/>
  <rect class="st0" x="840" y="840" width="40" height="40"/>
  <rect class="st0" x="880" y="840" width="40" height="40"/>
  <rect class="st0" x="920" y="840" width="40" height="40"/>
  <rect class="st0" x="960" y="840" width="40" height="40"/>
  <rect class="st0" y="880" width="40" height="40"/>
  <rect class="st0" x="40" y="880" width="40" height="40"/>
  <rect class="st0" x="80" y="880" width="40" height="40"/>
  <rect class="st0" x="120" y="880" width="40" height="40"/>
  <rect class="st0" x="160" y="880" width="40" height="40"/>
  <rect class="st0" x="200" y="880" width="40" height="40"/>
  <rect class="st0" x="240" y="880" width="40" height="40"/>
  <rect class="st0" x="280" y="880" width="40" height="40"/>
  <rect class="st0" x="320" y="880" width="40" height="40"/>
  <rect class="st0" x="360" y="880" width="40" height="40"/>
  <rect class="st0" x="400" y="880" width="40" height="40"/>
  <rect class="st0" x="440" y="880" width="40" height="40"/>
  <rect class="st0" x="480" y="880" width="40" height="40"/>
  <rect class="st0" x="520" y="880" width="40" height="40"/>
  <rect class="st0" x="560" y="880" width="40" height="40"/>
  <rect class="st0" x="600" y="880" width="40" height="40"/>
  <rect class="st0" x="640" y="880" width="40" height="40"/>
  <rect class="st0" x="680" y="880" width="40" height="40"/>
  <rect class="st0" x="720" y="880" width="40" height="40"/>
  <rect class="st0" x="760" y="880" width="40" height="40"/>
  <rect class="st0" x="800" y="880" width="40" height="40"/>
  <rect class="st0" x="840" y="880" width="40" height="40"/>
  <rect class="st0" x="880" y="880" width="40" height="40"/>
  <rect class="st0" x="920" y="880" width="40" height="40"/>
  <rect class="st0" x="960" y="880" width="40" height="40"/>
  <rect class="st0" y="920" width="40" height="40"/>
  <rect class="st0" x="40" y="920" width="40" height="40"/>
  <rect class="st0" x="80" y="920" width="40" height="40"/>
  <rect class="st0" x="120" y="920" width="40" height="40"/>
  <rect class="st0" x="160" y="920" width="40" height="40"/>
  <rect class="st0" x="200" y="920" width="40" height="40"/>
  <rect class="st0" x="240" y="920" width="40" height="40"/>
  <rect class="st0" x="280" y="920" width="40" height="40"/>
  <rect class="st0" x="320" y="920" width="40" height="40"/>
  <rect class="st0" x="360" y="920" width="40" height="40"/>
  <rect class="st0" x="400" y="920" width="40" height="40"/>
  <rect class="st0" x="440" y="920" width="40" height="40"/>
  <rect class="st0" x="480" y="920" width="40" height="40"/>
  <rect class="st0" x="520" y="920" width="40" height="40"/>
  <rect class="st0" x="560" y="920" width="40" height="40"/>
  <rect class="st0" x="600" y="920" width="40" height="40"/>
  <rect class="st0" x="640" y="920" width="40" height="40"/>
  <rect class="st0" x="680" y="920" width="40" height="40"/>
  <rect class="st0" x="720" y="920" width="40" height="40"/>
  <rect class="st0" x="760" y="920" width="40" height="40"/>
  <rect class="st0" x="800" y="920" width="40" height="40"/>
  <rect class="st0" x="840" y="920" width="40" height="40"/>
  <rect class="st0" x="880" y="920" width="40" height="40"/>
  <rect class="st0" x="920" y="920" width="40" height="40"/>
  <rect class="st0" x="960" y="920" width="40" height="40"/>
  <rect class="st0" y="960" width="40" height="40"/>
  <rect class="st0" x="40" y="960" width="40" height="40"/>
  <rect class="st0" x="80" y="960" width="40" height="40"/>
  <rect class="st0" x="120" y="960" width="40" height="40"/>
  <rect class="st0" x="160" y="960" width="40" height="40"/>
  <rect class="st0" x="200" y="960" width="40" height="40"/>
  <rect class="st0" x="240" y="960" width="40" height="40"/>
  <rect class="st0" x="280" y="960" width="40" height="40"/>
  <rect class="st0" x="320" y="960" width="40" height="40"/>
  <rect class="st0" x="360" y="960" width="40" height="40"/>
  <rect class="st0" x="400" y="960" width="40" height="40"/>
  <rect class="st0" x="440" y="960" width="40" height="40"/>
  <rect class="st0" x="480" y="960" width="40" height="40"/>
  <rect class="st0" x="520" y="960" width="40" height="40"/>
  <rect class="st0" x="560" y="960" width="40" height="40"/>
  <rect class="st0" x="600" y="960" width="40" height="40"/>
  <rect class="st0" x="640" y="960" width="40" height="40"/>
  <rect class="st0" x="680" y="960" width="40" height="40"/>
  <rect class="st0" x="720" y="960" width="40" height="40"/>
  <rect class="st0" x="760" y="960" width="40" height="40"/>
  <rect class="st0" x="800" y="960" width="40" height="40"/>
  <rect class="st0" x="840" y="960" width="40" height="40"/>
  <rect class="st0" x="880" y="960" width="40" height="40"/>
  <rect class="st0" x="920" y="960" width="40" height="40"/>
  <rect class="st0" x="960" y="960" width="40" height="40"/>
</svg>